<?xml version="1.0" encoding="UTF-8"?>
<svg id="Layer_2" data-name="Layer 2" xmlns="http://www.w3.org/2000/svg" viewBox="0 0 78.48 88">
  <defs>
    <style>
      .cls-1 {
        fill: none;
        stroke: #231f20;
        stroke-linecap: round;
        stroke-linejoin: round;
        stroke-width: 2px;
      }
    </style>
  </defs>
  <g id="Layer_1-2" data-name="Layer 1">
    <g>
      <path class="cls-1" d="M21.59,56.2c3.67-1.64,7.14-2.58,9.49-3.08,2.02-.44,3.46-2.21,3.46-4.27v-3.36c-7.42-2.74-12.72-9.86-12.8-18.2-.09-10.47,8.4-19.39,18.86-19.77,11.18-.43,20.37,8.49,20.37,19.59,0,8.64-5.6,15.99-13.39,18.6v2.98c0,2.13,1.54,3.92,3.62,4.3h.01c5.66,1.23,17.85,4.9,23.6,15.15"/>
      <path class="cls-1" d="M18.3,18.84h3.44v16.52h-3.44c-3.81,0-6.91-3.1-6.91-6.91v-2.7c0-3.81,3.1-6.91,6.91-6.91Z"/>
      <path class="cls-1" d="M67.88,18.84h3.44v16.52h-3.44c-3.81,0-6.91-3.1-6.91-6.91v-2.7c0-3.81,3.1-6.91,6.91-6.91Z" transform="translate(132.3 54.19) rotate(180)"/>
      <path class="cls-1" d="M65.12,18.86h-.01c-.35-2.17-3.65-17.86-23.74-17.86s-23.39,15.69-23.74,17.86h-.01"/>
      <path class="cls-1" d="M22.13,30.97s.49,6.92,13.7,6.92"/>
      <path class="cls-1" d="M42.92,35.93h-5.14c-1.08,0-1.96,.88-1.96,1.96h0c0,1.08,.88,1.96,1.96,1.96h5.14c1.08,0,1.96-.88,1.96-1.96h0c0-1.08-.88-1.96-1.96-1.96Z"/>
      <g>
        <path class="cls-1" d="M29.94,74.63c-.17,.51-.38,1.01-.61,1.5l2.61,3.41-5.2,5.21-3.41-2.61c-.48,.23-.98,.44-1.5,.61l-.55,4.26h-7.37l-.55-4.27c-.51-.17-1-.37-1.49-.61l-3.41,2.62-5.21-5.21,2.61-3.41c-.23-.48-.44-.98-.61-1.5l-4.26-.55v-7.37l4.26-.55c.17-.51,.38-1,.61-1.49l-2.61-3.41,5.21-5.2,3.41,2.61c.48-.23,.97-.43,1.49-.6l.55-4.27h7.37l.56,4.26c.51,.18,1,.38,1.49,.61l3.41-2.61,5.2,5.2-2.62,3.41c.24,.48,.45,.97,.62,1.49l4.26,.55v7.37l-4.26,.55Z"/>
        <path class="cls-1" d="M26.05,70.4c0,4.67-3.78,8.45-8.45,8.45s-8.45-3.79-8.45-8.45,3.78-8.45,8.45-8.45,8.45,3.78,8.45,8.45Z"/>
      </g>
      <path class="cls-1" d="M63.78,68.27h-2.89c-.95,0-1.85-.43-2.45-1.17l-2.26-2.78c-.63-.77-1.58-1.22-2.57-1.22h-4.98c-.76,0-1.49,.26-2.08,.73l-4.63,3.73c-.4,.32-.17,.96,.34,.96h6.97c1.17,0,2.12,.95,2.12,2.12v3.06c0,1.17-.95,2.12-2.12,2.12h-6.97c-.51,0-.74,.64-.34,.96l4.63,3.73c.59,.48,1.32,.73,2.08,.73h4.98c1,0,1.94-.45,2.57-1.22l2.26-2.78c.6-.74,1.5-1.17,2.45-1.17l16.59,.04"/>
    </g>
  </g>
</svg>