<?xml version="1.0" encoding="UTF-8"?>
<svg id="Layer_2" data-name="Layer 2" xmlns="http://www.w3.org/2000/svg" viewBox="0 0 68.07 85.36">
  <defs>
    <style>
      .cls-1 {
        fill: none;
        stroke: #231f20;
        stroke-linecap: round;
        stroke-linejoin: round;
        stroke-width: 2px;
      }
    </style>
  </defs>
  <g id="Layer_1-2" data-name="Layer 1">
    <g>
      <g>
        <path class="cls-1" d="M57.79,84.36c-5.54-25.26,12.42-34.43,8.79-56.79C63.59,9.13,52.82,1,35.83,1S6.47,14.15,6.47,30.36c0,3.18,.51,6.25,1.44,9.11h0s-4.33,11.05-4.33,11.05c-.56,1.43,.46,2.99,2,3.04l4.49,.15,2.67,12.29c.72,3.32,3.85,5.56,7.23,5.17l15.85-1.83s4.18-1.16,6.56-9.08"/>
        <path class="cls-1" d="M28.71,70.15s5.73,6.73,2.47,14.2"/>
      </g>
      <circle class="cls-1" cx="38.81" cy="26.3" r="17.04"/>
      <path class="cls-1" d="M24.65,3.21s8.68-.04,10.6,6.43"/>
      <path class="cls-1" d="M42.9,1.53s6.14,3.3,5.31,10.56"/>
      <path class="cls-1" d="M39.56,43.31s-1.52,17.48-30.33,22.97"/>
      <path class="cls-1" d="M9.46,67.64c0,2.34-1.89,4.23-4.23,4.23s-4.23-1.89-4.23-4.23,1.89-4.23,4.23-4.23,4.23,1.89,4.23,4.23Z"/>
      <path class="cls-1" d="M48.24,25.15c0,4.91-3.98,8.89-8.89,8.89s-8.89-3.98-8.89-8.89,3.98-8.89,8.89-8.89,8.89,3.98,8.89,8.89Z"/>
    </g>
  </g>
</svg>