<?xml version="1.0" encoding="UTF-8"?>
<svg id="Layer_2" data-name="Layer 2" xmlns="http://www.w3.org/2000/svg" viewBox="0 0 88.57 81">
  <defs>
    <style>
      .cls-1 {
        fill: none;
        stroke: #231f20;
        stroke-linecap: round;
        stroke-linejoin: round;
        stroke-width: 2px;
      }
    </style>
  </defs>
  <g id="Layer_1-2" data-name="Layer 1">
    <g>
      <path class="cls-1" d="M33.64,49.8c-1.23-1.23-3.24-1.23-4.47,0s-1.23,3.24,0,4.47l9.03,9.03h0c1.23,1.23,3.24,1.23,4.47,0l.02-.02,16.72-16.72c1.23-1.23,1.23-3.24,0-4.47-1.23-1.23-3.24-1.23-4.47,0l-14.51,14.51-6.79-6.79Z"/>
      <g>
        <g>
          <path class="cls-1" d="M67.5,68.9h14.69c2.97,0,5.38-2.41,5.38-5.39V6.39c0-2.97-2.41-5.39-5.38-5.39H6.39C3.41,1,1,3.42,1,6.39V63.51c0,2.99,2.41,5.39,5.39,5.39h15.4"/>
          <line class="cls-1" x1="1" y1="14.88" x2="87.57" y2="14.88"/>
          <line class="cls-1" x1="61.91" y1="7.53" x2="65.07" y2="7.53"/>
          <line class="cls-1" x1="70.81" y1="7.53" x2="73.96" y2="7.53"/>
          <line class="cls-1" x1="79.32" y1="7.53" x2="82.48" y2="7.53"/>
        </g>
        <path class="cls-1" d="M65.76,58.84c-.29,.88-.65,1.74-1.05,2.56l4.47,5.83-8.91,8.91-5.83-4.47c-.83,.4-1.68,.76-2.56,1.05l-.95,7.29h-12.6l-.95-7.31c-.88-.29-1.72-.64-2.54-1.05l-5.83,4.49-8.91-8.91,4.47-5.83c-.4-.83-.76-1.68-1.05-2.56l-7.29-.95v-12.6l7.29-.95c.29-.88,.65-1.72,1.05-2.54l-4.47-5.83,8.91-8.91,5.83,4.47c.83-.4,1.67-.74,2.54-1.03l.95-7.31h12.6l.96,7.29c.88,.31,1.72,.65,2.54,1.05l5.83-4.47,8.91,8.91-4.49,5.83c.41,.83,.77,1.67,1.07,2.54l7.29,.95v12.6l-7.29,.95Z"/>
      </g>
    </g>
  </g>
</svg>