<?xml version="1.0" encoding="UTF-8"?>
<svg id="Layer_2" data-name="Layer 2" xmlns="http://www.w3.org/2000/svg" viewBox="0 0 98.13 77">
  <defs>
    <style>
      .cls-1 {
        fill: none;
        stroke: #231f20;
        stroke-linecap: round;
        stroke-linejoin: round;
        stroke-width: 2px;
      }
    </style>
  </defs>
  <g id="Layer_1-2" data-name="Layer 1">
    <g>
      <g>
        <rect class="cls-1" x="1" y="6.95" width="96.13" height="69.05" rx="4.8" ry="4.8"/>
        <rect class="cls-1" x="1" y="1" width="96.13" height="5.37" rx="2.68" ry="2.68"/>
        <line class="cls-1" x1="1" y1="67.94" x2="97.13" y2="67.94"/>
      </g>
      <g>
        <path class="cls-1" d="M51.35,47.29v-5.67c0-.56,.25-1.08,.68-1.44l1.63-1.33c.45-.37,.72-.92,.72-1.51v-2.92c0-.44-.15-.87-.43-1.22l-2.19-2.71c-.19-.23-.56-.1-.56,.2v4.09c0,.69-.56,1.24-1.24,1.24h-1.79c-.69,0-1.24-.56-1.24-1.24v-4.09c0-.3-.38-.43-.56-.2l-2.19,2.71c-.28,.35-.43,.78-.43,1.22v2.92c0,.59,.26,1.14,.72,1.51l1.63,1.33c.43,.35,.68,.88,.68,1.44v5.67"/>
        <g>
          <path class="cls-1" d="M64.7,42.2c-.22,.65-.48,1.29-.78,1.9l3.31,4.32-6.59,6.6-4.32-3.31c-.61,.29-1.25,.56-1.9,.78l-.7,5.4h-9.33l-.7-5.41c-.65-.22-1.27-.47-1.88-.78l-4.32,3.32-6.6-6.6,3.31-4.32c-.29-.61-.56-1.25-.78-1.9l-5.4-.7v-9.33l5.4-.7c.22-.65,.48-1.27,.78-1.88l-3.31-4.32,6.6-6.59,4.32,3.31c.61-.29,1.24-.55,1.88-.76l.7-5.41h9.33l.71,5.4c.65,.23,1.27,.48,1.88,.78l4.32-3.31,6.59,6.59-3.32,4.32c.31,.61,.57,1.23,.79,1.88l5.4,.7v9.33l-5.4,.7Z"/>
          <path class="cls-1" d="M59.77,36.84c0,5.92-4.8,10.71-10.71,10.71s-10.71-4.8-10.71-10.71,4.8-10.71,10.71-10.71,10.71,4.8,10.71,10.71Z"/>
        </g>
      </g>
    </g>
  </g>
</svg>