<?xml version="1.0" encoding="UTF-8"?>
<svg id="Layer_2" data-name="Layer 2" xmlns="http://www.w3.org/2000/svg" viewBox="0 0 94.11 85">
  <defs>
    <style>
      .cls-1 {
        fill: none;
        stroke: #231f20;
        stroke-linecap: round;
        stroke-linejoin: round;
        stroke-width: 2px;
      }
    </style>
  </defs>
  <g id="Layer_1-2" data-name="Layer 1">
    <g>
      <g>
        <rect class="cls-1" x="1" y="1" width="92.11" height="66.17" rx="4.6" ry="4.6"/>
        <line class="cls-1" x1="1" y1="59.44" x2="93.11" y2="59.44"/>
        <rect class="cls-1" x="35.99" y="67.17" width="22.13" height="16.83"/>
        <line class="cls-1" x1="29.42" y1="84" x2="64.69" y2="84"/>
      </g>
      <g>
        <path d="M18.38,31.52c-.38-.2-.67-.55-.67-1.02s.29-.79,.67-.99l18.21-9.42c.15-.09,.32-.12,.47-.12,.41,0,.67,.5,.67,.85,0,.26-.12,.5-.41,.64l-17.68,9.05,17.68,9.1c.29,.15,.41,.38,.41,.64,0,.44-.26,.85-.67,.85-.12,0-.32-.03-.47-.12l-18.21-9.45Z"/>
        <path d="M52.31,17.29c.09-.23,.26-.35,.47-.35,.32,0,.85,.23,.85,.61,0,.09-.03,.2-.06,.29l-11.73,26.14c-.12,.23-.26,.41-.53,.41-.32,0-.85-.26-.85-.58,0-.09,.03-.17,.09-.29l11.76-26.23Z"/>
        <path d="M75.73,29.51c.38,.2,.67,.53,.67,.99s-.29,.82-.67,1.02l-18.21,9.45c-.15,.09-.35,.12-.47,.12-.41,0-.67-.41-.67-.85,0-.26,.12-.5,.41-.64l17.68-9.1-17.68-9.05c-.29-.15-.41-.38-.41-.64,0-.35,.26-.85,.67-.85,.15,0,.32,.03,.47,.12l18.21,9.42Z"/>
      </g>
    </g>
  </g>
</svg>