<?xml version="1.0" encoding="UTF-8"?>
<svg id="Layer_2" data-name="Layer 2" xmlns="http://www.w3.org/2000/svg" viewBox="0 0 85.87 86.02">
  <defs>
    <style>
      .cls-1 {
        fill: none;
        stroke: #231f20;
        stroke-linecap: round;
        stroke-linejoin: round;
        stroke-width: 2px;
      }
    </style>
  </defs>
  <g id="Layer_1-2" data-name="Layer 1">
    <g>
      <g>
        <path class="cls-1" d="M52.89,79.64l.72-5.55c1.29-.42,2.57-.96,3.78-1.53l8.62,6.59,13.15-13.13-6.61-8.62c.58-1.21,1.11-2.49,1.55-3.78l10.76-1.39v-18.6l-10.76-1.39c-.44-1.29-.98-2.55-1.57-3.76l6.63-8.6-13.15-13.15-8.62,6.59c-1.21-.58-2.45-1.07-3.74-1.53l-1.43-10.76h-18.6l-1.39,10.78c-1.29,.44-2.55,.94-3.76,1.51l-8.6-6.59L6.71,19.86l6.61,8.6c-.6,1.21-1.11,2.47-1.55,3.76l-10.77,1.39v18.6l10.77,1.39c.44,1.29,.96,2.57,1.55,3.78l-6.61,8.62,13.15,13.13,8.6-6.63c1.21,.62,2.47,1.11,3.76,1.55l.72,5.59"/>
        <circle class="cls-1" cx="42.93" cy="42.93" r="21.35" transform="translate(-4.98 5.64) rotate(-7.1)"/>
      </g>
      <g>
        <path class="cls-1" d="M32.98,6.39l-.72,5.55c-1.29,.42-2.57,.96-3.78,1.53l-8.62-6.59L6.71,20.02l6.61,8.62c-.58,1.21-1.11,2.49-1.55,3.78l-10.76,1.39v18.6l10.76,1.39c.44,1.29,.98,2.55,1.57,3.76l-6.63,8.6,13.15,13.15,8.62-6.59c1.21,.58,2.45,1.07,3.74,1.53l1.43,10.76h18.6l1.39-10.78c1.29-.44,2.55-.94,3.76-1.51l8.6,6.59,13.15-13.15-6.61-8.6c.6-1.21,1.11-2.47,1.55-3.76l10.77-1.39v-18.6l-10.77-1.39c-.44-1.29-.96-2.57-1.55-3.78l6.61-8.62-13.15-13.13-8.6,6.63c-1.21-.62-2.47-1.11-3.76-1.55l-.72-5.59"/>
        <circle class="cls-1" cx="42.94" cy="43.1" r="21.35" transform="translate(-5 5.64) rotate(-7.1)"/>
      </g>
    </g>
  </g>
</svg>