<?xml version="1.0" encoding="utf-8"?>
<!-- Generator: Adobe Illustrator 26.0.3, SVG Export Plug-In . SVG Version: 6.00 Build 0)  -->
<svg version="1.1" id="Layer_1" xmlns="http://www.w3.org/2000/svg" xmlns:xlink="http://www.w3.org/1999/xlink" x="0px" y="0px"
	 viewBox="0 0 37 37" style="enable-background:new 0 0 37 37;" xml:space="preserve">
<style type="text/css">
	.st0{fill:url(#SVGID_1_);}
	.st1{fill:none;stroke:#000000;stroke-width:0.5;stroke-linejoin:round;stroke-miterlimit:10;}
</style>
<g>
	<g>
		<linearGradient id="SVGID_1_" gradientUnits="userSpaceOnUse" x1="18.5" y1="0.4975" x2="18.5" y2="36.5025">
			<stop  offset="0" style="stop-color:#FF007F"/>
			<stop  offset="0.2054" style="stop-color:#FF305D"/>
			<stop  offset="0.4751" style="stop-color:#FF6835"/>
			<stop  offset="0.7071" style="stop-color:#FF9118"/>
			<stop  offset="0.8896" style="stop-color:#FFAA07"/>
			<stop  offset="1" style="stop-color:#FFB300"/>
		</linearGradient>
		<path class="st0" d="M18.5,0.5c-9.9,0-18,8.1-18,18c0,3.2,0.8,6.2,2.3,8.8c-0.4,1.4-1.9,6.1-2.1,6.8c-0.2,0.8-0.3,1.3,0.2,1.8
			c0.5,0.5,0.7,0.6,1.8,0.3c0.9-0.2,5.4-1.5,7-2c2.6,1.5,5.6,2.3,8.8,2.3c9.9,0,18-8.1,18-18C36.5,8.6,28.4,0.5,18.5,0.5z
			 M18.5,33.6c-2.7,0-5.3-0.7-7.5-2c0,0,0,0,0,0c-0.5-0.3-0.8-0.5-1.3-0.4c-0.1,0-0.5,0.1-0.9,0.3l0,0c-0.6,0.2-1.3,0.4-2,0.6
			l-2.6,0.7l0.8-2.5c0,0,0,0,0,0c0.3-1.1,0.7-2.3,0.8-2.6c0.2-0.7,0.2-1,0-1.2c0,0,0-0.1-0.1-0.1c-0.2-0.3-0.3-0.6-0.5-0.8
			c0-0.1-0.1-0.1-0.1-0.1l0,0C4,23.3,3.4,21,3.4,18.5c0-8.3,6.8-15.1,15.1-15.1s15.1,6.8,15.1,15.1S26.8,33.6,18.5,33.6z M20.9,17.9
			v-1.6v-1.8H14v3.4h2.2v7.8H14v3.4h9v-3.4h-2.2V17.9z M18.6,13c1.4,0,2.6-1.1,2.6-2.6c0-1.4-1.1-2.6-2.6-2.6C17.2,7.9,16,9,16,10.4
			C16,11.8,17.2,13,18.6,13z"/>
	</g>
	<g>
		<path class="st1" d="M18.5,0.5c-9.9,0-18,8.1-18,18c0,3.2,0.8,6.2,2.3,8.8c-0.4,1.4-1.9,6.1-2.1,6.8c-0.2,0.8-0.3,1.3,0.2,1.8
			c0.5,0.5,0.7,0.6,1.8,0.3c0.9-0.2,5.4-1.5,7-2c2.6,1.5,5.6,2.3,8.8,2.3c9.9,0,18-8.1,18-18C36.5,8.6,28.4,0.5,18.5,0.5z
			 M18.5,33.6c-2.7,0-5.3-0.7-7.5-2c0,0,0,0,0,0c-0.5-0.3-0.8-0.5-1.3-0.4c-0.1,0-0.5,0.1-0.9,0.3l0,0c-0.6,0.2-1.3,0.4-2,0.6
			l-2.6,0.7l0.8-2.5c0,0,0,0,0,0c0.3-1.1,0.7-2.3,0.8-2.6c0.2-0.7,0.2-1,0-1.2c0,0,0-0.1-0.1-0.1c-0.2-0.3-0.3-0.6-0.5-0.8
			c0-0.1-0.1-0.1-0.1-0.1l0,0C4,23.3,3.4,21,3.4,18.5c0-8.3,6.8-15.1,15.1-15.1s15.1,6.8,15.1,15.1S26.8,33.6,18.5,33.6z M20.9,17.9
			v-1.6v-1.8H14v3.4h2.2v7.8H14v3.4h9v-3.4h-2.2V17.9z M18.6,13c1.4,0,2.6-1.1,2.6-2.6c0-1.4-1.1-2.6-2.6-2.6C17.2,7.9,16,9,16,10.4
			C16,11.8,17.2,13,18.6,13z"/>
	</g>
</g>
</svg>
