<?xml version="1.0" encoding="utf-8"?>
<!-- Generator: Adobe Illustrator 25.1.0, SVG Export Plug-In . SVG Version: 6.00 Build 0)  -->
<svg version="1.1" id="Layer_1" xmlns="http://www.w3.org/2000/svg" xmlns:xlink="http://www.w3.org/1999/xlink" x="0px" y="0px"
	 viewBox="0 0 57 26" style="enable-background:new 0 0 57 26;" xml:space="preserve">
<style type="text/css">
	.st0{fill:#FFFFFF;}
</style>
<g>
	<path class="st0" d="M11.6,8.7H7.3V1.2c0-0.6-0.3-0.9-0.9-0.9c-0.6,0-0.9,0.5-0.9,0.9v7.5H1.3c-0.6,0-0.9,0.3-0.9,0.9
		c0,0.6,0.5,0.9,0.9,0.9h4.2v14.2c0,0.6,0.5,0.9,0.9,0.9c0.5,0,0.9-0.4,0.9-0.9V10.5h4.3c0.5,0,1-0.3,1-0.9
		C12.5,9,12.1,8.7,11.6,8.7z"/>
	<path class="st0" d="M26.3,16.9H22V1.2c0-0.6-0.3-0.9-0.9-0.9c-0.6,0-0.9,0.5-0.9,0.9v15.7H16c-0.6,0-0.9,0.3-0.9,0.9
		c0,0.6,0.5,0.9,0.9,0.9h4.3v6c0,0.6,0.5,0.9,0.9,0.9c0.4,0,0.7-0.3,0.9-0.8l0-6.1h4.2c0.5,0,1-0.3,1-0.9
		C27.2,17.3,26.8,16.9,26.3,16.9z"/>
	<path class="st0" d="M41,13.2h-4.3v-12c0-0.6-0.3-0.9-0.9-0.9c-0.6,0-0.9,0.5-0.9,0.9v12h-4.3c-0.6,0-0.9,0.3-0.9,0.9
		c0,0.6,0.5,0.9,0.9,0.9h4.3v9.7c0,0.6,0.5,0.9,0.9,0.9c0.4,0,0.7-0.3,0.9-0.8l0-9.9H41c0.4,0,0.9-0.3,0.9-0.9S41.4,13.2,41,13.2z"
		/>
	<path class="st0" d="M55.7,3.5h-4.2V1.2c0-0.6-0.3-0.9-0.9-0.9c-0.6,0-0.9,0.5-0.9,0.9v2.2h-4.4c-0.6,0-0.9,0.5-0.9,0.9
		c0,0.6,0.5,0.9,0.9,0.9h4.4v19.5c0,0.6,0.5,0.9,0.9,0.9c0.4,0,0.7-0.3,0.9-0.8l0-19.6h4.2c0.5,0,0.9-0.4,0.9-0.9
		C56.6,3.8,56.2,3.5,55.7,3.5z"/>
</g>
</svg>
