<?xml version="1.0" encoding="utf-8"?>
<!-- Generator: Adobe Illustrator 25.1.0, SVG Export Plug-In . SVG Version: 6.00 Build 0)  -->
<svg version="1.1" id="Layer_1" xmlns="http://www.w3.org/2000/svg" xmlns:xlink="http://www.w3.org/1999/xlink" x="0px" y="0px"
	 viewBox="0 0 623 118" style="enable-background:new 0 0 623 118;" xml:space="preserve">
<style type="text/css">
	.st0{fill:#1F419B;}
	.st1{fill:#FFFFFF;}
	.st2{fill-rule:evenodd;clip-rule:evenodd;fill:#49BE3F;}
</style>
<g transform="translate(-147.035 -148.356)">
	<circle class="st0" cx="205.8" cy="207.4" r="58.5"/>
	<path class="st1" d="M234.2,195.9c0-0.8-0.6-1.4-1.4-1.5c0,0,0,0-0.1,0c-0.8,0-1.5,0.6-1.5,1.4c0,0,0,0,0,0c0,0.6-0.1,1.2,0,1.7
		c0,13.7-0.1,27.4-0.1,41.1c0,0.9,0.3,1.8-1.4,1.8c-15.9-0.1-31.9-0.1-47.8,0c-1,0-1.4-0.2-1.4-1.3c0-21.1,0-42.2,0-63.4
		c0-1.1,0.3-1.4,1.4-1.4c11,0,22,0,33,0c1-0.1,1.9,0.3,2.6,1c3.7,3.7,7.4,7.4,11.6,11.5c-3.6,0-6.6,0-9.5,0c-0.8,0-0.9-0.4-0.9-1.1
		c0-1.7,0-3.3,0-5c0-1-0.5-1.8-1.6-1.8s-1.5,0.8-1.5,1.8c0,2,0,4,0,6c0,2.4,0.7,3.1,3.1,3.1c3.8,0,7.6,0,11.3,0
		c1.2,0,2.4-0.2,2.9-1.4c0.5-1.3-0.1-2.3-1-3.2c-3.9-3.9-7.8-7.8-11.7-11.7c-1.5-1.6-3.5-2.4-5.6-2.3c-11.2,0-22.4,0-33.6,0
		c-2.8,0-3.5,0.6-3.5,3.5c0,21.7,0,43.4,0,65.1c0,3,0.6,3.6,3.6,3.6c16.5,0,33,0,49.5,0c3,0,3.5-0.6,3.5-3.6
		c0-14.1,0.1-28.3,0.1-42.4C234.2,196.9,234.2,196.4,234.2,195.9z"/>
	<path class="st1" d="M224,201.9c-6.1,0-12.1,0-18.2,0c-6.1,0-12.3,0-18.4,0c-1.1,0-2.2,0.1-2.3,1.4c0,1.4,1.1,1.7,2.3,1.7
		c12.2,0,24.4,0,36.6,0c1.2,0,2.4-0.1,2.4-1.6C226.4,201.9,225.1,201.9,224,201.9z"/>
	<path class="st1" d="M224,209.8c-12.1,0-24.3,0-36.4,0c-1.2,0-2.4,0.1-2.4,1.5c-0.1,1.6,1.3,1.6,2.5,1.6c6.1,0,12.1,0,18.2,0
		s12.1,0,18.2,0c1.1,0,2.4,0,2.4-1.5C226.3,209.8,225.1,209.8,224,209.8z"/>
	<path class="st1" d="M224.6,217.4c-0.3,0-0.5,0-0.8,0c-12.1,0-24.2,0-36.2,0c-1.2,0-2.5,0.1-2.5,1.7c0,1.5,1.3,1.4,2.4,1.4
		c6.1,0,12.1,0,18.2,0c3.8,0,7.7,0,11.5,0c2.4,0,4.9,0,7.3,0c1,0,1.8-0.4,1.8-1.5S225.6,217.5,224.6,217.4z"/>
	<path class="st1" d="M223.9,228c1.2,0,2.5,0,2.5-1.7c-0.1-1.5-1.3-1.4-2.5-1.4c-6,0-12,0-18,0c-6.1,0-12.3,0-18.4,0
		c-1.2,0-2.4,0-2.4,1.5c0,1.4,1.2,1.6,2.4,1.6C199.6,228,211.7,228,223.9,228z"/>
	<path class="st1" d="M201.6,194.4c-4.9,0-9.7,0-14.6,0c-1.1,0-2,0.5-1.9,1.6c0,1.2,1,1.5,2.1,1.5c2.4,0,4.7,0,7.1,0
		c2.4,0,4.9,0,7.3,0c1.1,0,2-0.3,2-1.5C203.6,194.8,202.7,194.4,201.6,194.4z"/>
	<path class="st1" d="M187.2,235.7c2.3,0,4.6,0,6.9,0c2.4,0,4.9,0,7.3,0c1.2,0,2.1-0.4,2.1-1.6c0-1.2-1-1.5-2.1-1.4
		c-4.7,0-9.5,0-14.2,0c-1.1,0-2.2,0.2-2.2,1.5C185.1,235.4,186.1,235.7,187.2,235.7z"/>
	<path class="st2" d="M349.3,184.3c-1.7,1.7-1.7,4.5,0,6.3l12.3,12.3h-69.5c-2.5,0-4.6,2.1-4.6,4.6c0,2.5,2.1,4.6,4.6,4.6l0,0h69.3
		l-12.1,12.1c-1.7,1.7-1.7,4.5,0,6.3c1.7,1.7,4.5,1.7,6.3,0l0,0l19.8-19.8c0,0,0.1-0.1,0.1-0.1l0,0c1.7-1.7,1.7-4.5,0-6.3l0,0
		c0,0-0.1-0.1-0.1-0.1l-19.8-19.8C353.8,182.6,351,182.6,349.3,184.3z"/>
	<path class="st2" d="M602,184.3c-1.7,1.7-1.7,4.5,0,6.3l12.3,12.3h-69.5c-2.5,0-4.6,2.1-4.6,4.6c0,2.5,2.1,4.6,4.6,4.6l0,0h69.3
		L602,224.1c-1.7,1.7-1.7,4.5,0,6.3c1.7,1.7,4.5,1.7,6.3,0l19.8-19.8c0,0,0.1-0.1,0.1-0.1l0,0c1.7-1.7,1.7-4.5,0-6.3l0,0
		c0,0-0.1-0.1-0.1-0.1l-19.8-19.8C606.5,182.6,603.7,182.6,602,184.3z"/>
	<path class="st0" d="M711.2,148.9c32.3,0,58.5,26.2,58.5,58.5s-26.2,58.5-58.5,58.5s-58.5-26.2-58.5-58.5S678.9,148.9,711.2,148.9z
		"/>
	<path class="st1" d="M705.8,182.4c0.2,0.6,0.8,0.9,1.4,0.8c0.6-0.2,0.9-0.7,0.8-1.3l-2.2-8.3c-0.2-0.6-0.8-0.9-1.4-0.8
		c-0.6,0.2-0.9,0.7-0.8,1.3L705.8,182.4z"/>
	<path class="st1" d="M699.2,187.2c0.4,0.4,1.1,0.5,1.6,0c0.4-0.4,0.5-1.1,0-1.6c0,0,0,0,0,0l-6-6c-0.4-0.4-1.1-0.4-1.6,0
		s-0.4,1.1,0,1.6L699.2,187.2z"/>
	<path class="st1" d="M714.9,183.2L714.9,183.2c0.6,0.2,1.2-0.2,1.4-0.8l2.2-8.2c0.2-0.6-0.2-1.2-0.7-1.4c-0.6-0.2-1.2,0.2-1.4,0.7
		c0,0,0,0,0,0.1l-2.2,8.2C714,182.4,714.3,183.1,714.9,183.2z"/>
	<path class="st1" d="M723.2,187.1l5.8-6.3c0.4-0.4,0.4-1.1,0-1.6c-0.4-0.4-1.1-0.4-1.6,0c0,0,0,0,0,0l-5.8,6.3
		c-0.4,0.4-0.4,1.2,0.1,1.6C722.1,187.6,722.8,187.6,723.2,187.1C723.2,187.1,723.2,187.1,723.2,187.1L723.2,187.1z"/>
	<path class="st1" d="M751.7,216.6l-7.7-26.8c-0.2-0.6-0.8-0.9-1.4-0.8l-9,2.6c-0.6,0.2-0.9,0.8-0.8,1.4l0.3,1
		c-4.8,0.7-11.1-0.8-15.3-1.7c-4.2-0.9-9.6-1.6-12.2-1.4c-1.6,0.1-3,0.8-4.2,1.9c-0.2,0.2-0.9,0.2-3,0.7c-2.5,0.4-4.9,0.7-7.4,0.8
		c-0.6,0.1-1.2,0-1.8-0.1l0.3-1.1c0.2-0.6-0.2-1.2-0.8-1.4l-9-2.6c-0.6-0.2-1.2,0.2-1.4,0.8l-7.7,26.8c-0.2,0.6,0.2,1.2,0.8,1.4
		l9,2.6c0.6,0.2,1.2-0.2,1.4-0.8l0.2-0.7c5.5,0.6,6.3,4,6.3,4c-1.5,2-1.9,4.1,0,6s4.7,0.5,4.7,0.5c-0.6,1.7,0.1,3.7,1.7,4.6
		c1.8,1.1,4.2,0.1,4.2,0.1c-0.5,1.4,0,2.9,1.1,3.9c1.1,1.1,2.7,1.4,4.1,0.7c0.2,1.8,1.7,3.1,3.5,3.1c1.7-0.1,3.3-2.3,3.3-2.3
		c0.6,0.6,1.2,1.1,1.9,1.5c1.2,0.8,2.4,0.8,4.2-0.3c1-0.6,1.6-1.8,1.5-3c1.4,0.1,2.8-0.1,4.1-0.8c1-0.7,1.6-1.7,1.8-2.8
		c1.8,0.3,3.6-0.5,4.7-1.9c0.7-0.9,1.2-2,1.2-3.2c0.9,0.1,1.9,0,2.8-0.2c1.7-0.8,2.8-2.4,3.3-4.2c0.1-1.1-0.2-2.1-0.9-2.9
		c1.5-1.1,3.1-2,4.8-2.7l0.2,0.7c0.2,0.6,0.8,0.9,1.4,0.8l9-2.6C751.5,217.8,751.9,217.2,751.7,216.6z M680.7,217.9
		c-0.1,0.3-0.3,0.4-0.6,0.3c0,0,0,0,0,0l-6.8-1.9c-0.3-0.1-0.4-0.3-0.3-0.6c0,0,0,0,0,0l7-24.2c0.1-0.3,0.3-0.4,0.6-0.3c0,0,0,0,0,0
		l6.8,1.9c0.3,0.1,0.4,0.3,0.3,0.6c0,0,0,0,0,0L680.7,217.9z M692.1,227.7c0,0-1.5,0.9-2.4,0.2s-1-1.9,0.2-3.7s2.7-3.1,4-2.6
		c0.9,0.2,1.5,1,1.4,2c-0.1,0.3-0.2,0.6-0.4,0.8C694,225.5,693.1,226.7,692.1,227.7L692.1,227.7z M697.7,232.5
		c-0.9,0.6-2.2,0.2-2.7-0.7c-0.1-0.1-0.1-0.3-0.2-0.5c0,0-0.6-1.1,0.8-2.8s3-3.3,4.2-3.5c1.1-0.1,2.1,0.7,2.2,1.8
		c0,0.3,0,0.5-0.1,0.8C701.4,229.1,699.5,231.9,697.7,232.5L697.7,232.5z M703.2,236.9c-1.3,0.5-2.5,0.1-2.6-1.4s0.8-2.5,1.9-3.6
		s2.4-2.2,3.4-1.5c1.1,0.6,1.4,2,0.8,3.1c0,0,0,0,0,0.1C705.9,235.1,704.7,236.2,703.2,236.9L703.2,236.9z M709.8,238
		c-0.8,1.2-2,2.8-3.3,1.4c0,0-0.6-0.8,0.3-2.2s1.9-2.8,3-2.3S710.5,236.8,709.8,238L709.8,238z M733.7,226.2c-0.8,1.1-2.7,1.5-4.5,0
		s-7.2-6.1-7.8-6.5s-2-1.8-2.5-1s-0.3,1.2,0.9,2c3,2.2,5.8,4.7,8.5,7.4c1,1.3-0.4,3.6-2.1,4.1s-2.6-0.8-3.5-2.2s-4.9-4.5-5.9-5.3
		s-1.7-1-2.2-0.5s-0.3,1,0.5,1.7s6.5,5.5,7.1,6.7s0.4,2.6-1.5,3.3s-3-0.6-3.7-1.6c-1.7-1.8-3.6-3.5-5.6-4.9
		c-0.6-0.3-1.7,0.5-1.3,1.2s3.7,3.1,5.4,4.9s1.2,3.4-0.3,4.1S712,238,712,238c0.7-1.3,0.5-2.9-0.6-4c-0.6-0.8-1.7-1.1-2.6-0.6
		c0.5-0.9-0.1-3.4-1.9-4.5c-1.1-0.6-2.4-0.7-3.5-0.1c0.9-1.7,0.3-3.9-1.5-4.9c-2.6-1.7-5.1,0.6-5.1,0.6c1.2-1.9-1.2-5.3-3.7-4.9
		c-1.4,0.2-2.6,0.9-3.4,2.1c-0.5-1.2-1.4-2.1-2.5-2.8c-1.4-0.8-3-1.4-4.6-1.7l6.1-21.2c4,0.9,9.7-0.6,9.7-0.6s-1.7,2.2-4.3,6
		s-2.2,6.5-0.3,7.9s5.8,0.6,8.7-1.7s4.5-3.5,6.7-4s3,0.9,5.3,2.8s16.2,13.6,18.3,15.1c1.5,1,1.9,3,0.9,4.5
		C733.8,226.1,733.8,226.2,733.7,226.2L733.7,226.2z M734.5,220c-0.7,0.4-0.7-0.1-2.4-1.5s-18-15-18.8-15.8s-1.8-1.1-3.8-1
		s-4,1.3-5.8,2.8s-4.2,3.1-5.7,3.5s-3.7,0.3-3.7-1.3s1-4.2,4-8s4.4-4.9,7.2-5.5s5.7-0.1,9.3,0.7s8.6,1.8,10.5,2.2
		c1.9,0.2,3.9,0.3,5.8,0.3c1.1,0,2-0.1,2.5-0.1l6,21C737.9,217.9,736.2,218.8,734.5,220L734.5,220z M749.2,216.3l-6.8,1.9
		c-0.3,0.1-0.5-0.1-0.6-0.3l-7-24.2c-0.1-0.3,0.1-0.5,0.3-0.6l6.8-1.9c0.3-0.1,0.5,0.1,0.6,0.3c0,0,0,0,0,0l7,24.2
		C749.6,216,749.4,216.2,749.2,216.3C749.2,216.3,749.2,216.3,749.2,216.3L749.2,216.3z"/>
	<path class="st0" d="M458.5,148.9c32.3,0,58.5,26.2,58.5,58.5s-26.2,58.5-58.5,58.5S400,239.7,400,207.4S426.2,148.9,458.5,148.9z"
		/>
	<path class="st1" d="M495.9,231.7c-0.3-3.4-0.8-6.7-1.7-10c-0.5-2.4-2.2-4.3-4.5-5.1c-1.6-0.5-19.3-5-19.9-5.1s-1.2-0.4-1.2,0.1
		s-1.4,5.4-2.3,8.1s-3.2,9.5-3.3,10s-0.2,0.4-0.2,0.4l-1.7-11.7c0.1-0.5,0.3-0.9,0.5-1.4c0.4-0.7,0.7-1.4,0.8-2.2
		c0-0.8-0.6-1.4-1.4-1.5h-4.7c-1.2,0-1.3,0.9-1.4,1.7s1.4,3.3,1.4,3.3l-1.7,12c-0.2,0.1-2-5.7-2.9-7.9s-2.8-9.7-3-10.5
		s-0.4-0.8-2-0.4s-15.8,4.2-18.3,4.8s-3.6,1-5.5,5.6s-1.7,10.9-1.8,12.8s0.6,2,0.6,2c13.9,5.4,28.6,6,45.8,5.4s27.7-5.3,28.2-5.6
		S496.2,235.7,495.9,231.7z M467.4,240.2c-3.5,0.1-6.6,0.2-9.4,0.2c-14.7,0-25.2-1.5-34.9-5.2c0-0.1,0-0.1,0-0.2
		c0-0.4,0-0.9,0.1-1.6c0.1-2.5,0.2-7.2,1.6-10.6c1.5-3.6,1.9-3.8,4.1-4.4c2.5-0.7,15.9-4.3,18-4.8l0.1,0.2c0.8,3.2,1.7,6.3,2.7,9.4
		c0.4,0.9,1,2.7,1.5,4.3c1.4,4.1,1.6,4.9,3.3,4.9h0.3l1.6-0.5l2-14l-0.3-0.6c-0.3-0.6-0.6-1.2-0.9-1.9h2.7c-0.1,0.2-0.2,0.3-0.3,0.5
		c-0.4,0.7-0.7,1.4-0.8,2.2l0,0.3l1.9,13l1.4,0.8h0.6c1.1,0,2-0.8,2.2-1.9c0.1-0.2,0.4-1.2,0.9-2.6c0.8-2.3,1.9-5.6,2.4-7.3
		c0.3-0.9,1.3-4.3,1.9-6.6c3.5,0.9,17.4,4.5,19,4.9c1.5,0.6,2.7,1.9,3,3.6l0.3,1.1c0.7,2.8,1.2,5.7,1.4,8.6l0,0.8
		c0.1,1,0.1,1.9,0.1,2.5C491.5,236.1,481.9,239.7,467.4,240.2L467.4,240.2z"/>
	<path class="st1" d="M474,185.1c-0.7,0-0.5-0.5-0.4-1.4s0.3-4.3,0.3-5.7s0.6-3.2-1.2-5.8s-3.6-3.1-4.1-3.2s-0.6-0.2-1.1-0.7
		c-1.2-1.1-2.7-1.9-4.2-2.5c-4.1-1.4-8.6-1.3-12.6,0.3c-6.2,2.2-7.7,6.6-7.9,10c0,2.9,0.2,5.9,0.5,8.8c0,0.3-0.2,0.4-0.2,0.4
		s-0.7-0.6-1.5,0.3s-0.9,3.7,0.3,6.8s2.8,2.5,2.9,2.5s0.4,0.2,0.4,0.2c0.8,2.7,2.1,5.2,3.7,7.6c1.7,2.2,4.4,4.2,9.4,4.2
		c3.7,0.1,7.2-1.6,9.5-4.5c1.3-1.9,3.5-6.8,3.7-7.2s1.1,0.2,2.3-1.1s1.8-3.7,1.9-6S474.7,185.1,474,185.1z M445.1,176.2
		c0.2-3.9,2.3-6.6,6.5-8.1c2-0.7,4.1-1.1,6.2-1.1c1.7,0,3.4,0.3,5,0.8c1.2,0.5,2.3,1.1,3.4,1.9c0.5,0.8,1.4,1.2,2.3,1.3
		c1.1,0.4,2.1,1.3,2.7,2.3c0.8,1.1,1.1,2.4,0.9,3.7c0,0.3,0,0.6-0.1,0.9c0,0.4,0,1-0.1,1.7c-1.2-0.5-2.3-1.3-3.1-2.3
		c-0.4-0.6-1.1-1-1.9-1c-0.9,0-1.6,0.4-4,2c-1.7,1.2-4.6,2-8.7,2.5c-2.2,0.3-5.6,0.4-7.5,0.5c-0.8,0-1.1,0.1-1.4,0.1
		C445.1,179.6,445,177.9,445.1,176.2z M445.2,194c-0.7,0.3-1.5,0-1.9-0.7c0-0.1-0.1-0.1-0.1-0.2c-0.5-1.5-1.3-3.5-1.1-5.6
		s1.1-1.8,1.5-1.2c0.4,1.4,0.7,2.8,1,4.2c0.2,0.8,0.7,2.7,0.7,3C445.3,193.6,445.3,193.8,445.2,194z M470.9,192.1
		c-1.1,3.4-3.6,9.7-6.7,11.3s-8.6,2.9-12.4-0.8c-2.7-2.8-4.7-6.2-5.7-10c-0.5-1.6-1.5-5.9-1.1-8.7c0,0-0.2-0.5,0.2-0.6
		s5.9-0.2,9-0.6s7-1.1,9.6-2.8s2.8-1.8,2.9-1.6c1.3,1.7,3.1,2.9,5.2,3.5C472,181.8,472.1,188.7,470.9,192.1L470.9,192.1z M474,193.1
		c-0.2,0.8-1,1.2-1.7,1c-0.1,0-0.1,0-0.2-0.1c-0.1-0.2-0.1-0.4-0.1-0.5c0-0.3,0.5-2.1,0.7-3c0.2-1.4,0.6-2.8,1-4.2
		c0.3-0.6,1.3-0.8,1.5,1.2S474.4,191.5,474,193.1z"/>
</g>
</svg>
