<?xml version="1.0" encoding="utf-8"?>
<!-- Generator: Adobe Illustrator 27.0.0, SVG Export Plug-In . SVG Version: 6.00 Build 0)  -->
<svg version="1.1" id="Layer_2_00000142859662410409992230000005361917278400400053_"
	 xmlns="http://www.w3.org/2000/svg" xmlns:xlink="http://www.w3.org/1999/xlink" x="0px" y="0px" viewBox="0 0 737.5 173.6"
	 style="enable-background:new 0 0 737.5 173.6;" xml:space="preserve">
<style type="text/css">
	.st0{clip-path:url(#SVGID_00000132807856932074544550000015332744552889793677_);}
	.st1{clip-path:url(#SVGID_00000158747050911084184080000001813905115220364468_);}
	.st2{fill:#213A8F;}
	.st3{fill:#F9B000;}
	.st4{enable-background:new    ;}
</style>
<g id="Layer_1-2">
	<g>
		<g>
			<g id="VISIOTT_Color_Logo">
				<g>
					<defs>
						<rect id="SVGID_1_" y="14.1" width="455.1" height="93.5"/>
					</defs>
					<clipPath id="SVGID_00000105418680050839977320000010664484001159452593_">
						<use xlink:href="#SVGID_1_"  style="overflow:visible;"/>
					</clipPath>
					<g style="clip-path:url(#SVGID_00000105418680050839977320000010664484001159452593_);">
						<g>
							<defs>
								<rect id="SVGID_00000060015811084323005860000012358362729827100086_" y="14.1" width="455.1" height="93.5"/>
							</defs>
							<clipPath id="SVGID_00000183957234590895653140000007899236986058820994_">
								<use xlink:href="#SVGID_00000060015811084323005860000012358362729827100086_"  style="overflow:visible;"/>
							</clipPath>
							<g style="clip-path:url(#SVGID_00000183957234590895653140000007899236986058820994_);">
								<path class="st2" d="M38.1,76.7c0.3,0.7,0.8,1.1,1.6,1.1c0.7,0,1.2-0.3,1.5-1.1l22.2-57.2c0.6-1.6,1.6-2.9,3-3.9
									c1.4-1,2.9-1.5,4.6-1.5c1.4,0,2.7,0.3,3.9,1s2.1,1.5,2.9,2.5s1.2,2.2,1.4,3.5s0,2.7-0.5,4l-29.3,75.4
									c-0.8,2-2.1,3.7-3.9,4.9c-1.8,1.2-3.7,1.8-5.9,1.8s-4.1-0.6-5.9-1.8c-1.8-1.2-3.1-2.8-3.9-4.9L0.6,25.2
									c-0.5-1.3-0.7-2.7-0.5-4s0.6-2.5,1.4-3.5c0.8-1,1.7-1.9,2.9-2.5s2.4-1,3.9-1c1.7,0,3.2,0.5,4.6,1.5c1.4,1,2.4,2.3,3,3.9
									L38.1,76.7z"/>
								<path class="st2" d="M86.8,105.2c-1.6-1.5-2.5-3.4-2.5-5.7V22.6c0-2.3,0.8-4.3,2.4-5.9s3.6-2.4,5.9-2.4s4.3,0.8,5.9,2.3
									s2.4,3.5,2.4,5.8v76.8c0,2.3-0.8,4.2-2.3,5.8s-3.5,2.3-5.8,2.3S88.4,106.7,86.8,105.2"/>
								<path class="st2" d="M186.3,105.2c-1.6-1.5-2.5-3.4-2.5-5.7V22.6c0-2.3,0.8-4.3,2.4-5.9c1.6-1.6,3.6-2.4,5.9-2.4
									s4.3,0.8,5.9,2.3s2.4,3.5,2.4,5.8v76.8c0,2.3-0.8,4.2-2.3,5.8s-3.5,2.3-5.8,2.3S188,106.7,186.3,105.2"/>
								<path class="st2" d="M273.8,17.6c5.7,2.3,10.6,5.5,14.7,9.6s7.3,9,9.6,14.8c2.3,5.7,3.5,12,3.5,18.8s-1.1,13.1-3.5,18.8
									s-5.5,10.7-9.6,14.8s-9,7.3-14.7,9.6c-5.7,2.3-11.9,3.4-18.8,3.4s-13.1-1.1-18.8-3.4c-5.7-2.3-10.6-5.5-14.7-9.6
									s-7.4-9.1-9.6-14.8c-2.3-5.7-3.5-12-3.5-18.8s1.1-13.1,3.5-18.8c2.3-5.7,5.5-10.6,9.6-14.8c4.1-4.1,9-7.3,14.7-9.6
									c5.7-2.3,11.9-3.4,18.8-3.4S268.2,15.4,273.8,17.6 M265.6,89.5c3.6-1.1,6.9-2.8,9.8-5.1c2.9-2.3,5.3-5.5,7.1-9.3
									s2.7-8.6,2.7-14.2s-0.9-10.3-2.7-14.2s-4.2-7-7.1-9.3s-6.2-4.1-9.8-5.1c-3.6-1.1-7.1-1.6-10.6-1.6s-7,0.5-10.6,1.6
									c-3.6,1.1-6.9,2.8-9.8,5.1c-2.9,2.3-5.3,5.5-7.1,9.3c-1.8,3.9-2.7,8.6-2.7,14.2s0.9,10.3,2.7,14.2c1.8,3.9,4.2,7,7.1,9.3
									s6.2,4.1,9.8,5.1c3.6,1.1,7.1,1.6,10.6,1.6S262.1,90.5,265.6,89.5"/>
								<path class="st3" d="M304.4,30.6c-2.3,0-4.3-0.7-5.9-2.2c-1.6-1.5-2.5-3.4-2.5-5.7s0.8-4.3,2.4-5.9s3.5-2.4,5.9-2.4h58
									c2.3,0,4.3,0.8,5.9,2.3c1.6,1.5,2.4,3.5,2.4,5.8s-0.8,4.2-2.3,5.8c-1.5,1.5-3.5,2.3-5.8,2.3h-15.8c-1.4,0-2.6,0.5-3.6,1.5
									c-1,1-1.5,2.2-1.5,3.6v63.6c0,2.3-0.8,4.2-2.3,5.8s-3.5,2.3-5.8,2.3s-4.2-0.8-5.8-2.4c-1.5-1.6-2.3-3.6-2.3-5.9V35.7
									c0-1.4-0.5-2.6-1.5-3.6c-1-1-2.2-1.5-3.6-1.5L304.4,30.6L304.4,30.6z"/>
								<path class="st3" d="M389,30.6c-2.3,0-4.3-0.7-5.9-2.2c-1.6-1.5-2.5-3.4-2.5-5.7s0.8-4.3,2.4-5.9s3.5-2.4,5.9-2.4h58
									c2.3,0,4.3,0.8,5.9,2.3c1.6,1.5,2.4,3.5,2.4,5.8s-0.8,4.2-2.3,5.8c-1.5,1.5-3.5,2.3-5.8,2.3h-15.8c-1.4,0-2.6,0.5-3.6,1.5
									c-1,1-1.5,2.2-1.5,3.6v63.6c0,2.3-0.8,4.2-2.3,5.8s-3.5,2.3-5.8,2.3s-4.2-0.8-5.8-2.4c-1.5-1.6-2.3-3.6-2.3-5.9V35.7
									c0-1.4-0.5-2.6-1.5-3.6c-1-1-2.2-1.5-3.6-1.5L389,30.6L389,30.6z"/>
								<path class="st2" d="M121.3,60.8c2.9,2,6.3,3.5,10,4.7c1.4,0.4,2.9,0.8,4.3,1.3L149,53.6c-0.9-0.2-1.9-0.5-2.8-0.7
									c-3.8-0.9-6.9-1.7-9.3-2.4c-2.4-0.7-4.3-1.5-5.7-2.3c-1.4-0.8-2.3-1.8-2.8-2.7c-0.5-1-0.7-2.2-0.7-3.6v-0.3
									c0-3.2,1.5-5.8,4.5-7.9s6.8-3.1,11.4-3.1c3.7,0,6.4,0.4,8.1,1.2c1.7,0.8,3.1,1.8,4.3,2.9c1.6,1.6,3.6,2.4,5.9,2.4
									s4.1-0.8,5.7-2.4c1.6-1.6,2.4-3.5,2.3-5.8c-0.1-2.3-0.9-4.2-2.5-5.8c-3.2-3.1-6.7-5.4-10.4-6.8c-3.8-1.4-8.3-2.1-13.5-2.1
									c-4,0-7.9,0.6-11.8,1.8s-7.3,3-10.3,5.3s-5.4,5.1-7.2,8.5c-1.8,3.4-2.7,7.3-2.7,11.7v0.3c0,4.7,0.9,8.6,2.8,11.7
									C116,56.4,118.4,58.9,121.3,60.8"/>
								<path class="st2" d="M174.4,68.1c-1.9-3.3-4.4-5.9-7.4-7.8l-1.3-0.8c-2-1.2-4-2.2-6.2-3l-13.2,13c2.2,0.6,4.1,1.1,5.7,1.6
									c2.4,0.8,4.4,1.6,5.7,2.4c1.4,0.8,2.3,1.8,2.8,2.8c0.5,1,0.7,2.2,0.7,3.7c0,2.3-0.6,4.2-1.8,5.6c-1.2,1.4-2.7,2.5-4.5,3.3
									c-1.8,0.8-3.7,1.3-5.8,1.6c-2.1,0.3-4,0.4-5.8,0.4c-3.6,0-6.6-0.2-9-0.7c-2.4-0.4-4.3-0.9-5.7-1.5c-1.5-0.6-2.6-1.2-3.3-1.9
									c-0.7-0.7-1.3-1.2-1.7-1.7c-1.6-1.8-3.6-2.7-6.1-2.7c-1,0-1.9,0.2-2.9,0.5s-1.8,0.9-2.6,1.6c-1.7,1.5-2.6,3.4-2.7,5.7
									c-0.1,2.3,0.6,4.2,2.1,5.9c3.5,3.8,7.7,6.6,12.8,8.4c5.1,1.8,11.4,2.7,19,2.7c6.3,0,11.6-0.8,15.9-2.5
									c4.3-1.6,7.8-3.8,10.4-6.4s4.6-5.6,5.8-8.8s1.8-6.5,1.8-9.7C177.3,75.4,176.3,71.4,174.4,68.1"/>
							</g>
						</g>
					</g>
				</g>
			</g>
			<rect x="474.6" y="2.8" class="st2" width="2" height="116"/>
			<g class="st4">
				<path class="st2" d="M523.3,34.3h-27.3V18.3h74.2v16.1H543v69.1h-19.7V34.3z"/>
				<path class="st2" d="M637.4,22c5.6,2.5,9.8,6.1,12.8,10.7c3,4.6,4.5,10.1,4.5,16.4c0,6.2-1.5,11.7-4.5,16.4
					c-3,4.7-7.3,8.2-12.8,10.7c-5.6,2.5-12.1,3.7-19.7,3.7h-17.2v23.5h-19.7V18.3h36.9C625.3,18.3,631.9,19.5,637.4,22z M630.2,60.1
					c3.1-2.6,4.6-6.2,4.6-10.9c0-4.8-1.5-8.5-4.6-11c-3.1-2.6-7.6-3.8-13.5-3.8h-16.1v29.6h16.1C622.6,63.9,627.1,62.6,630.2,60.1z"
					/>
				<path class="st2" d="M678.4,102.2c-6.3-1.8-11.3-4.2-15.1-7.1l6.7-14.8c3.7,2.7,8,4.8,13,6.4c5,1.6,10.1,2.4,15.1,2.4
					c5.6,0,9.7-0.8,12.4-2.5c2.7-1.7,4-3.9,4-6.6c0-2-0.8-3.7-2.4-5c-1.6-1.3-3.6-2.4-6.1-3.2c-2.5-0.8-5.8-1.7-10-2.7
					c-6.5-1.5-11.8-3.1-15.9-4.6c-4.1-1.5-7.7-4-10.6-7.4c-3-3.4-4.4-7.9-4.4-13.6c0-4.9,1.3-9.4,4-13.4c2.7-4,6.7-7.2,12.1-9.6
					c5.4-2.4,12-3.5,19.8-3.5c5.4,0,10.7,0.7,15.9,1.9c5.2,1.3,9.7,3.2,13.6,5.6l-6.1,15c-7.9-4.5-15.7-6.7-23.6-6.7
					c-5.5,0-9.6,0.9-12.2,2.7c-2.6,1.8-4,4.1-4,7.1s1.5,5.1,4.6,6.5c3,1.4,7.7,2.8,13.9,4.2c6.5,1.5,11.8,3.1,15.9,4.6
					c4.1,1.5,7.7,4,10.6,7.3c3,3.3,4.4,7.8,4.4,13.5c0,4.9-1.4,9.3-4.1,13.3c-2.7,4-6.8,7.2-12.2,9.6c-5.4,2.4-12,3.5-19.8,3.5
					C691.2,104.9,684.7,104,678.4,102.2z"/>
			</g>
		</g>
		<g class="st4">
			<path class="st2" d="M69.2,136.2H58.9v-1.9h22.7v1.9H71.3V163h-2.1V136.2z"/>
		</g>
		<g class="st4">
			<path class="st2" d="M90.6,142.7c1.4-0.8,3.1-1.2,5.1-1.2v2l-0.5,0c-2.4,0-4.2,0.7-5.6,2.2c-1.3,1.5-2,3.6-2,6.2V163h-2v-21.4h2
				v4.7C88.2,144.7,89.2,143.5,90.6,142.7z"/>
		</g>
		<g class="st4">
			<path class="st2" d="M114.6,143.5c1.4,1.3,2.1,3.3,2.1,6V163h-2v-3.8c-0.7,1.3-1.7,2.2-3,2.9s-2.9,1-4.7,1
				c-2.4,0-4.2-0.6-5.6-1.7c-1.4-1.1-2.1-2.6-2.1-4.4c0-1.8,0.6-3.2,1.9-4.3s3.3-1.7,6.1-1.7h7.3v-1.7c0-2-0.5-3.5-1.6-4.5
				c-1.1-1-2.7-1.6-4.7-1.6c-1.4,0-2.8,0.2-4.1,0.7s-2.4,1.1-3.3,2l-1-1.5c1.1-1,2.3-1.7,3.8-2.2c1.5-0.5,3.1-0.8,4.7-0.8
				C111.1,141.4,113.2,142.1,114.6,143.5z M111.9,160.2c1.2-0.8,2.2-2,2.8-3.6v-4h-7.3c-2.1,0-3.6,0.4-4.6,1.1
				c-0.9,0.8-1.4,1.8-1.4,3.2c0,1.4,0.5,2.5,1.6,3.3c1,0.8,2.5,1.2,4.4,1.2C109.1,161.4,110.6,161,111.9,160.2z"/>
		</g>
		<g class="st4">
			<path class="st2" d="M128.1,161.7c-1.6-0.9-2.9-2.2-3.8-3.9c-0.9-1.6-1.4-3.5-1.4-5.6c0-2.1,0.5-4,1.4-5.6
				c0.9-1.6,2.2-2.9,3.8-3.8c1.6-0.9,3.5-1.4,5.6-1.4c1.7,0,3.3,0.3,4.7,1c1.4,0.7,2.5,1.6,3.4,2.9l-1.5,1.1
				c-0.8-1.1-1.7-1.9-2.8-2.4s-2.4-0.8-3.7-0.8c-1.7,0-3.2,0.4-4.5,1.1c-1.3,0.8-2.4,1.8-3.1,3.2s-1.1,2.9-1.1,4.7
				c0,1.8,0.4,3.3,1.1,4.7c0.8,1.4,1.8,2.4,3.1,3.2c1.3,0.8,2.8,1.1,4.5,1.1c1.4,0,2.6-0.3,3.7-0.8c1.1-0.5,2.1-1.3,2.8-2.4l1.5,1.1
				c-0.9,1.3-2,2.3-3.4,2.9c-1.4,0.7-3,1-4.7,1C131.6,163.1,129.7,162.7,128.1,161.7z"/>
		</g>
		<g class="st4">
			<path class="st2" d="M165.6,152.8h-18.4c0.1,1.7,0.5,3.1,1.3,4.4c0.8,1.3,1.9,2.3,3.2,3c1.4,0.7,2.9,1.1,4.6,1.1
				c1.4,0,2.7-0.3,3.9-0.8c1.2-0.5,2.2-1.2,3-2.2l1.2,1.4c-0.9,1.1-2.1,2-3.5,2.6c-1.4,0.6-2.9,0.9-4.6,0.9c-2.1,0-4-0.5-5.7-1.4
				c-1.7-0.9-3-2.2-3.9-3.8c-0.9-1.6-1.4-3.5-1.4-5.6c0-2.1,0.4-3.9,1.3-5.6c0.9-1.6,2.1-2.9,3.7-3.9c1.6-0.9,3.3-1.4,5.2-1.4
				s3.7,0.5,5.2,1.4c1.5,0.9,2.8,2.2,3.6,3.8s1.3,3.5,1.3,5.6L165.6,152.8z M151.4,144.2c-1.2,0.7-2.2,1.6-2.9,2.8
				c-0.7,1.2-1.1,2.6-1.2,4.1h16.4c-0.1-1.5-0.5-2.9-1.2-4.1c-0.7-1.2-1.7-2.1-2.9-2.8c-1.2-0.7-2.6-1-4.1-1
				S152.6,143.6,151.4,144.2z"/>
		</g>
		<g class="st4">
			<path class="st2" d="M184.6,143.5c1.4,1.3,2.1,3.3,2.1,6V163h-2v-3.8c-0.7,1.3-1.7,2.2-3,2.9c-1.3,0.7-2.9,1-4.7,1
				c-2.4,0-4.2-0.6-5.6-1.7c-1.4-1.1-2.1-2.6-2.1-4.4c0-1.8,0.6-3.2,1.9-4.3c1.3-1.1,3.3-1.7,6.1-1.7h7.3v-1.7c0-2-0.5-3.5-1.6-4.5
				c-1.1-1-2.7-1.6-4.7-1.6c-1.4,0-2.8,0.2-4.1,0.7c-1.3,0.5-2.4,1.1-3.3,2l-1-1.5c1.1-1,2.3-1.7,3.8-2.2c1.5-0.5,3.1-0.8,4.7-0.8
				C181.2,141.4,183.2,142.1,184.6,143.5z M181.9,160.2c1.2-0.8,2.2-2,2.8-3.6v-4h-7.3c-2.1,0-3.6,0.4-4.6,1.1
				c-0.9,0.8-1.4,1.8-1.4,3.2c0,1.4,0.5,2.5,1.6,3.3c1,0.8,2.5,1.2,4.4,1.2C179.2,161.4,180.7,161,181.9,160.2z"/>
			<path class="st2" d="M211.3,142.8c1.6,0.9,2.9,2.2,3.8,3.8c0.9,1.7,1.4,3.5,1.4,5.6c0,2.1-0.5,4-1.4,5.6
				c-0.9,1.6-2.2,2.9-3.8,3.8c-1.6,0.9-3.4,1.4-5.4,1.4c-1.9,0-3.6-0.5-5.2-1.4c-1.5-0.9-2.7-2.2-3.6-3.8v5h-2v-30.4h2v13.9
				c0.8-1.6,2-2.8,3.6-3.7c1.5-0.9,3.2-1.3,5.1-1.3C207.9,141.4,209.7,141.9,211.3,142.8z M210.2,160.1c1.3-0.8,2.3-1.8,3.1-3.2
				c0.8-1.4,1.1-2.9,1.1-4.7c0-1.7-0.4-3.3-1.1-4.7c-0.8-1.4-1.8-2.4-3.1-3.2c-1.3-0.8-2.8-1.1-4.4-1.1c-1.6,0-3.1,0.4-4.4,1.1
				c-1.3,0.8-2.3,1.8-3.1,3.2c-0.8,1.4-1.1,2.9-1.1,4.7c0,1.7,0.4,3.3,1.1,4.7c0.7,1.4,1.8,2.4,3.1,3.2c1.3,0.8,2.8,1.1,4.4,1.1
				C207.4,161.3,208.9,160.9,210.2,160.1z"/>
			<path class="st2" d="M222.8,132.6h2V163h-2V132.6z"/>
			<path class="st2" d="M251.5,152.8h-18.4c0.1,1.7,0.5,3.1,1.3,4.4c0.8,1.3,1.9,2.3,3.2,3c1.3,0.7,2.9,1.1,4.6,1.1
				c1.4,0,2.7-0.3,3.9-0.8c1.2-0.5,2.2-1.2,3-2.2l1.2,1.4c-0.9,1.1-2.1,2-3.5,2.6c-1.4,0.6-2.9,0.9-4.6,0.9c-2.1,0-4-0.5-5.7-1.4
				c-1.7-0.9-3-2.2-3.9-3.8c-0.9-1.6-1.4-3.5-1.4-5.6c0-2.1,0.4-3.9,1.3-5.6c0.9-1.6,2.1-2.9,3.7-3.9c1.6-0.9,3.3-1.4,5.2-1.4
				s3.7,0.5,5.2,1.4c1.5,0.9,2.8,2.2,3.6,3.8c0.9,1.6,1.3,3.5,1.3,5.6L251.5,152.8z M237.3,144.2c-1.2,0.7-2.2,1.6-2.9,2.8
				c-0.7,1.2-1.1,2.6-1.2,4.1h16.4c-0.1-1.5-0.5-2.9-1.2-4.1c-0.7-1.2-1.7-2.1-2.9-2.8c-1.2-0.7-2.5-1-4-1S238.5,143.6,237.3,144.2z
				"/>
		</g>
		<g class="st4">
			<path class="st2" d="M287.8,136.9c2,1.7,3.1,4.1,3.1,7.1c0,3-1,5.4-3.1,7.1c-2,1.7-4.9,2.6-8.5,2.6h-8.2v9.4h-2.1v-28.6h10.3
				C282.9,134.3,285.8,135.2,287.8,136.9z M286.3,149.7c1.6-1.3,2.4-3.2,2.4-5.7c0-2.5-0.8-4.4-2.4-5.7c-1.6-1.3-3.9-2-7-2h-8.2
				v15.5h8.2C282.4,151.7,284.7,151,286.3,149.7z"/>
		</g>
		<g class="st4">
			<path class="st2" d="M310.3,143.5c1.4,1.3,2.1,3.3,2.1,6V163h-2v-3.8c-0.7,1.3-1.7,2.2-3,2.9s-2.9,1-4.7,1
				c-2.4,0-4.2-0.6-5.6-1.7c-1.4-1.1-2.1-2.6-2.1-4.4c0-1.8,0.6-3.2,1.9-4.3s3.3-1.7,6.1-1.7h7.3v-1.7c0-2-0.5-3.5-1.6-4.5
				c-1.1-1-2.7-1.6-4.7-1.6c-1.4,0-2.8,0.2-4.1,0.7s-2.4,1.1-3.3,2l-1-1.5c1.1-1,2.3-1.7,3.8-2.2c1.5-0.5,3.1-0.8,4.7-0.8
				C306.9,141.4,308.9,142.1,310.3,143.5z M307.6,160.2c1.2-0.8,2.2-2,2.8-3.6v-4h-7.3c-2.1,0-3.6,0.4-4.6,1.1
				c-0.9,0.8-1.4,1.8-1.4,3.2c0,1.4,0.5,2.5,1.6,3.3c1,0.8,2.5,1.2,4.4,1.2C304.9,161.4,306.4,161,307.6,160.2z"/>
		</g>
		<g class="st4">
			<path class="st2" d="M323.8,161.7c-1.6-0.9-2.9-2.2-3.8-3.9c-0.9-1.6-1.4-3.5-1.4-5.6c0-2.1,0.5-4,1.4-5.6
				c0.9-1.6,2.2-2.9,3.8-3.8c1.6-0.9,3.5-1.4,5.6-1.4c1.7,0,3.3,0.3,4.7,1c1.4,0.7,2.5,1.6,3.4,2.9l-1.5,1.1
				c-0.8-1.1-1.7-1.9-2.8-2.4s-2.4-0.8-3.7-0.8c-1.7,0-3.2,0.4-4.5,1.1c-1.3,0.8-2.4,1.8-3.1,3.2s-1.1,2.9-1.1,4.7
				c0,1.8,0.4,3.3,1.1,4.7c0.8,1.4,1.8,2.4,3.1,3.2c1.3,0.8,2.8,1.1,4.5,1.1c1.4,0,2.6-0.3,3.7-0.8c1.1-0.5,2.1-1.3,2.8-2.4l1.5,1.1
				c-0.9,1.3-2,2.3-3.4,2.9c-1.4,0.7-3,1-4.7,1C327.3,163.1,325.5,162.7,323.8,161.7z"/>
		</g>
		<g class="st4">
			<path class="st2" d="M350.9,151.5l-5.6,5.1v6.3h-2v-30.4h2v21.5l13.7-12.5h2.6l-9.2,8.6l10.1,12.7H360L350.9,151.5z"/>
		</g>
		<g class="st4">
			<path class="st2" d="M380.2,143.5c1.4,1.3,2.1,3.3,2.1,6V163h-2v-3.8c-0.7,1.3-1.7,2.2-3,2.9c-1.3,0.7-2.9,1-4.7,1
				c-2.4,0-4.2-0.6-5.6-1.7c-1.4-1.1-2.1-2.6-2.1-4.4c0-1.8,0.6-3.2,1.9-4.3s3.3-1.7,6.1-1.7h7.3v-1.7c0-2-0.5-3.5-1.6-4.5
				c-1.1-1-2.7-1.6-4.7-1.6c-1.4,0-2.8,0.2-4.1,0.7c-1.3,0.5-2.4,1.1-3.3,2l-1-1.5c1.1-1,2.3-1.7,3.8-2.2c1.5-0.5,3.1-0.8,4.7-0.8
				C376.8,141.4,378.8,142.1,380.2,143.5z M377.5,160.2c1.2-0.8,2.2-2,2.8-3.6v-4H373c-2.1,0-3.6,0.4-4.6,1.1
				c-0.9,0.8-1.4,1.8-1.4,3.2c0,1.4,0.5,2.5,1.6,3.3c1,0.8,2.5,1.2,4.4,1.2C374.7,161.4,376.2,161,377.5,160.2z"/>
		</g>
		<g class="st4">
			<path class="st2" d="M410,141.6v19.1c0,3.5-0.9,6.2-2.6,7.9c-1.7,1.7-4.3,2.5-7.8,2.5c-2,0-3.8-0.3-5.6-0.9
				c-1.7-0.6-3.2-1.4-4.2-2.5l1.1-1.6c1.1,1,2.3,1.7,3.8,2.3c1.5,0.5,3.1,0.8,4.8,0.8c2.8,0,4.9-0.7,6.3-2c1.4-1.4,2-3.4,2-6.3v-3.6
				c-0.9,1.6-2.1,2.8-3.6,3.6c-1.6,0.8-3.3,1.3-5.2,1.3c-2,0-3.8-0.4-5.4-1.3c-1.6-0.9-2.9-2.1-3.8-3.7c-0.9-1.6-1.4-3.4-1.4-5.4
				c0-2,0.5-3.8,1.4-5.4c0.9-1.6,2.2-2.8,3.8-3.7c1.6-0.9,3.4-1.3,5.4-1.3c2,0,3.7,0.4,5.3,1.3c1.6,0.9,2.8,2.1,3.6,3.7v-4.8H410z
				 M403.8,159.2c1.3-0.7,2.4-1.7,3.1-3c0.8-1.3,1.1-2.8,1.1-4.4c0-1.7-0.4-3.1-1.1-4.4c-0.8-1.3-1.8-2.3-3.1-3
				c-1.3-0.7-2.8-1.1-4.5-1.1s-3.2,0.4-4.5,1.1c-1.3,0.7-2.4,1.7-3.1,3c-0.8,1.3-1.1,2.8-1.1,4.4c0,1.7,0.4,3.1,1.1,4.4
				c0.8,1.3,1.8,2.3,3.1,3c1.3,0.7,2.8,1.1,4.5,1.1S402.4,160,403.8,159.2z"/>
			<path class="st2" d="M418.5,135.9c-0.3-0.3-0.5-0.7-0.5-1.2s0.2-0.9,0.5-1.2s0.7-0.5,1.2-0.5s0.9,0.2,1.2,0.5
				c0.3,0.3,0.5,0.7,0.5,1.2s-0.2,0.9-0.5,1.2c-0.3,0.3-0.7,0.5-1.2,0.5S418.9,136.2,418.5,135.9z M418.7,141.6h2V163h-2V141.6z"/>
		</g>
		<g class="st4">
			<path class="st2" d="M446.1,143.8c1.6,1.6,2.3,3.8,2.3,6.7V163h-2v-12.3c0-2.4-0.6-4.2-1.8-5.5c-1.2-1.3-2.9-1.9-5.1-1.9
				c-2.5,0-4.5,0.8-5.9,2.2s-2.2,3.5-2.2,6.1V163h-2v-21.4h2v4.6c0.7-1.5,1.8-2.7,3.3-3.5s3.2-1.3,5.2-1.3
				C442.5,141.4,444.6,142.2,446.1,143.8z"/>
		</g>
		<g class="st4">
			<path class="st2" d="M476.2,141.6v19.1c0,3.5-0.9,6.2-2.6,7.9c-1.7,1.7-4.3,2.5-7.8,2.5c-2,0-3.8-0.3-5.6-0.9
				c-1.7-0.6-3.2-1.4-4.2-2.5l1.1-1.6c1.1,1,2.3,1.7,3.8,2.3c1.5,0.5,3.1,0.8,4.8,0.8c2.8,0,4.9-0.7,6.3-2c1.4-1.4,2-3.4,2-6.3v-3.6
				c-0.9,1.6-2.1,2.8-3.6,3.6c-1.6,0.8-3.3,1.3-5.2,1.3c-2,0-3.8-0.4-5.4-1.3c-1.6-0.9-2.9-2.1-3.8-3.7c-0.9-1.6-1.4-3.4-1.4-5.4
				c0-2,0.5-3.8,1.4-5.4c0.9-1.6,2.2-2.8,3.8-3.7c1.6-0.9,3.4-1.3,5.4-1.3c2,0,3.7,0.4,5.3,1.3c1.6,0.9,2.8,2.1,3.6,3.7v-4.8H476.2z
				 M469.9,159.2c1.3-0.7,2.4-1.7,3.1-3c0.8-1.3,1.1-2.8,1.1-4.4c0-1.7-0.4-3.1-1.1-4.4c-0.8-1.3-1.8-2.3-3.1-3
				c-1.3-0.7-2.8-1.1-4.5-1.1c-1.7,0-3.2,0.4-4.5,1.1c-1.3,0.7-2.4,1.7-3.1,3c-0.8,1.3-1.1,2.8-1.1,4.4c0,1.7,0.4,3.1,1.1,4.4
				c0.8,1.3,1.8,2.3,3.1,3c1.3,0.7,2.8,1.1,4.5,1.1C467.1,160.3,468.6,160,469.9,159.2z"/>
			<path class="st2" d="M497.5,162.1c-1.9-0.7-3.4-1.7-4.4-2.8l0.9-1.6c1,1.1,2.4,1.9,4.1,2.6c1.7,0.7,3.5,1,5.4,1
				c2.7,0,4.8-0.5,6.2-1.6c1.4-1,2.1-2.4,2.1-4c0-1.3-0.4-2.3-1.1-3.1c-0.7-0.8-1.7-1.3-2.7-1.8c-1.1-0.4-2.6-0.8-4.4-1.3
				c-2.1-0.5-3.8-1-5.1-1.5c-1.3-0.5-2.3-1.2-3.2-2.3c-0.9-1-1.3-2.4-1.3-4.1c0-1.4,0.4-2.7,1.1-3.8c0.7-1.2,1.9-2.1,3.4-2.8
				s3.4-1,5.7-1c1.6,0,3.1,0.2,4.7,0.7c1.5,0.5,2.8,1.1,4,1.9l-0.8,1.7c-1.1-0.8-2.4-1.4-3.8-1.8s-2.7-0.6-4.1-0.6
				c-2.6,0-4.7,0.5-6,1.6c-1.4,1.1-2,2.4-2,4.1c0,1.3,0.4,2.3,1.1,3.1c0.7,0.8,1.7,1.4,2.7,1.8c1.1,0.4,2.6,0.8,4.5,1.3
				c2.1,0.5,3.8,1,5,1.5c1.3,0.5,2.3,1.2,3.2,2.2c0.9,1,1.3,2.3,1.3,4c0,1.4-0.4,2.7-1.1,3.8c-0.8,1.1-1.9,2.1-3.5,2.7
				c-1.6,0.7-3.5,1-5.7,1C501.4,163.2,499.4,162.8,497.5,162.1z"/>
			<path class="st2" d="M523.2,161.7c-1.6-0.9-2.9-2.2-3.8-3.9c-0.9-1.6-1.4-3.5-1.4-5.6c0-2.1,0.5-3.9,1.4-5.6
				c0.9-1.6,2.2-2.9,3.8-3.9c1.6-0.9,3.4-1.4,5.5-1.4c2,0,3.8,0.5,5.5,1.4c1.6,0.9,2.9,2.2,3.8,3.9c0.9,1.7,1.4,3.5,1.4,5.6
				c0,2.1-0.5,3.9-1.4,5.6c-0.9,1.7-2.2,2.9-3.8,3.9c-1.6,0.9-3.4,1.4-5.5,1.4C526.6,163.1,524.8,162.7,523.2,161.7z M533,160.1
				c1.3-0.8,2.3-1.8,3.1-3.2c0.8-1.4,1.1-2.9,1.1-4.7c0-1.7-0.4-3.3-1.1-4.7c-0.8-1.4-1.8-2.4-3.1-3.2c-1.3-0.8-2.8-1.1-4.4-1.1
				c-1.6,0-3.1,0.4-4.4,1.1s-2.3,1.8-3.1,3.2c-0.8,1.4-1.1,2.9-1.1,4.7c0,1.7,0.4,3.3,1.1,4.7c0.8,1.4,1.8,2.4,3.1,3.2
				c1.3,0.8,2.8,1.1,4.4,1.1C530.3,161.3,531.7,160.9,533,160.1z"/>
			<path class="st2" d="M545.6,132.6h2V163h-2V132.6z"/>
			<path class="st2" d="M575,141.6V163h-2v-4.6c-0.7,1.5-1.8,2.7-3.2,3.5s-3,1.2-4.9,1.2c-2.8,0-5-0.8-6.5-2.3s-2.4-3.8-2.4-6.7
				v-12.5h2v12.3c0,2.4,0.6,4.2,1.8,5.5c1.2,1.3,3,1.9,5.2,1.9c2.4,0,4.3-0.7,5.7-2.2c1.4-1.5,2.1-3.5,2.1-6.1v-11.4H575z"/>
			<path class="st2" d="M594.3,161.6c-0.5,0.5-1.2,0.9-1.9,1.1c-0.8,0.3-1.6,0.4-2.4,0.4c-1.9,0-3.3-0.5-4.3-1.5
				c-1-1-1.5-2.4-1.5-4.3v-14h-3.9v-1.8h3.9v-4.7h2v4.7h6.8v1.8h-6.8v13.7c0,1.4,0.3,2.4,1,3.2c0.7,0.7,1.7,1.1,3,1.1
				c1.3,0,2.4-0.4,3.3-1.2L594.3,161.6z"/>
			<path class="st2" d="M599.8,135.9c-0.3-0.3-0.5-0.7-0.5-1.2s0.2-0.9,0.5-1.2s0.7-0.5,1.2-0.5s0.9,0.2,1.2,0.5s0.5,0.7,0.5,1.2
				s-0.2,0.9-0.5,1.2c-0.3,0.3-0.7,0.5-1.2,0.5S600.1,136.2,599.8,135.9z M600,141.6h2V163h-2V141.6z"/>
			<path class="st2" d="M613.5,161.7c-1.6-0.9-2.9-2.2-3.8-3.9c-0.9-1.6-1.4-3.5-1.4-5.6c0-2.1,0.5-3.9,1.4-5.6
				c0.9-1.6,2.2-2.9,3.8-3.9c1.6-0.9,3.4-1.4,5.5-1.4c2,0,3.8,0.5,5.5,1.4c1.6,0.9,2.9,2.2,3.8,3.9c0.9,1.7,1.4,3.5,1.4,5.6
				c0,2.1-0.5,3.9-1.4,5.6c-0.9,1.7-2.2,2.9-3.8,3.9c-1.6,0.9-3.4,1.4-5.5,1.4C617,163.1,615.1,162.7,613.5,161.7z M623.4,160.1
				c1.3-0.8,2.3-1.8,3.1-3.2c0.8-1.4,1.1-2.9,1.1-4.7c0-1.7-0.4-3.3-1.1-4.7c-0.8-1.4-1.8-2.4-3.1-3.2c-1.3-0.8-2.8-1.1-4.4-1.1
				c-1.6,0-3.1,0.4-4.4,1.1s-2.3,1.8-3.1,3.2c-0.8,1.4-1.1,2.9-1.1,4.7c0,1.7,0.4,3.3,1.1,4.7c0.8,1.4,1.8,2.4,3.1,3.2
				c1.3,0.8,2.8,1.1,4.4,1.1C620.6,161.3,622.1,160.9,623.4,160.1z"/>
			<path class="st2" d="M652.8,143.8c1.6,1.6,2.3,3.8,2.3,6.7V163h-2v-12.3c0-2.4-0.6-4.2-1.8-5.5c-1.2-1.3-2.9-1.9-5.1-1.9
				c-2.5,0-4.5,0.8-5.9,2.2c-1.4,1.5-2.2,3.5-2.2,6.1V163h-2v-21.4h2v4.6c0.7-1.5,1.8-2.7,3.3-3.5s3.2-1.3,5.2-1.3
				C649.1,141.4,651.2,142.2,652.8,143.8z"/>
			<path class="st2" d="M664,162.3c-1.6-0.5-2.8-1.2-3.6-2l0.9-1.6c0.9,0.7,2,1.4,3.4,1.8c1.4,0.5,2.8,0.7,4.3,0.7
				c2.2,0,3.7-0.4,4.8-1.1c1-0.7,1.5-1.7,1.5-2.9c0-0.9-0.3-1.6-0.8-2.1c-0.6-0.5-1.2-0.9-2.1-1.1c-0.8-0.2-2-0.5-3.4-0.8
				c-1.7-0.3-3.1-0.6-4.1-1c-1-0.4-1.9-0.9-2.7-1.7s-1.1-1.9-1.1-3.3c0-1.7,0.7-3.1,2.1-4.2c1.4-1.1,3.4-1.7,6-1.7
				c1.4,0,2.7,0.2,4,0.6c1.3,0.4,2.4,0.9,3.3,1.5l-0.9,1.6c-0.9-0.6-1.9-1.1-3-1.4s-2.3-0.5-3.4-0.5c-2,0-3.5,0.4-4.5,1.1
				s-1.5,1.7-1.5,2.9c0,1,0.3,1.7,0.9,2.2c0.6,0.5,1.3,0.9,2.1,1.2c0.8,0.3,2,0.5,3.5,0.8c1.7,0.3,3,0.6,4,1c1,0.3,1.9,0.9,2.6,1.7
				c0.7,0.8,1.1,1.8,1.1,3.2c0,1.8-0.7,3.2-2.2,4.3c-1.5,1.1-3.5,1.6-6.2,1.6C667.2,163.1,665.6,162.9,664,162.3z"/>
		</g>
	</g>
</g>
</svg>
